<svg width="742" height="743" viewBox="0 0 742 743" fill="none" xmlns="http://www.w3.org/2000/svg">
<path fill-rule="evenodd" clip-rule="evenodd" d="M550.246 236.332L550.253 236.342C553.831 242.548 559.719 247.086 566.631 248.966C573.543 250.847 580.919 249.917 587.148 246.38L587.292 246.299L587.438 246.222C590.638 244.542 593.47 242.24 595.768 239.451C598.066 236.662 599.783 233.441 600.819 229.979C601.856 226.517 602.19 222.882 601.802 219.289C601.417 215.722 600.328 212.267 598.599 209.125C589.711 193.714 576.924 180.913 561.523 172.008C546.097 163.088 528.592 158.392 510.773 158.392C492.954 158.392 475.449 163.088 460.023 172.008C444.837 180.789 432.193 193.357 423.322 208.48C421.284 214.284 421.277 220.617 423.316 226.437C425.437 232.491 429.635 237.598 435.164 240.85C440.693 244.103 447.197 245.291 453.519 244.203C459.595 243.158 465.127 240.075 469.21 235.474C473.325 228.71 479.081 223.087 485.951 219.13C493.105 215.009 501.217 212.84 509.473 212.84C517.73 212.84 525.842 215.009 532.996 219.13C540.151 223.251 546.097 229.179 550.24 236.321L550.246 236.332ZM295.914 134.957L295.909 134.964C294.116 138.061 292.952 141.481 292.486 145.029C292.02 148.577 292.26 152.182 293.193 155.637C294.126 159.091 295.733 162.327 297.922 165.158C300.11 167.987 302.836 170.356 305.942 172.128C309.616 174.22 313.726 175.424 317.946 175.645C322.656 175.628 327.282 174.386 331.367 172.038C335.512 169.656 338.954 166.221 341.344 162.081C358.516 132.341 383.214 107.645 412.955 90.4752C442.695 73.3053 476.432 64.2662 510.773 64.2662C545.114 64.2662 578.85 73.3053 608.591 90.4752C638.332 107.645 663.029 132.341 680.201 162.08L680.215 162.104L680.229 162.128C682.001 165.236 684.371 167.964 687.202 170.152C690.032 172.341 693.268 173.949 696.723 174.882C700.178 175.815 703.783 176.055 707.331 175.589C710.879 175.123 714.299 173.959 717.395 172.165L717.538 172.083L717.683 172.005C720.86 170.302 723.666 167.982 725.937 165.183C728.207 162.383 729.897 159.158 730.907 155.698C731.918 152.238 732.228 148.611 731.821 145.029C731.416 141.469 730.31 138.024 728.566 134.893C706.623 96.9681 675.095 65.4781 637.142 43.5818C599.168 21.6732 556.099 10.14 512.258 10.14C468.417 10.14 425.348 21.6732 387.374 43.5818C349.4 65.4904 317.858 97.0033 295.914 134.957ZM537.902 455.548V334.161C537.902 326.966 535.044 320.065 529.956 314.978C524.868 309.89 517.968 307.032 510.773 307.032C503.578 307.032 496.677 309.89 491.59 314.978C486.502 320.066 483.644 326.966 483.644 334.161V455.548H102.354C75.4645 455.548 49.6763 466.23 30.6626 485.244C11.6488 504.257 0.96701 530.045 0.96701 556.935V631.193C0.96701 658.082 11.6488 683.871 30.6626 702.884C49.6763 721.898 75.4645 732.58 102.354 732.58H585.031C611.92 732.58 637.709 721.898 656.722 702.884C675.736 683.871 686.418 658.082 686.418 631.193V556.935C686.418 530.045 675.736 504.257 656.722 485.244C637.709 466.23 611.92 455.548 585.031 455.548H537.902ZM250.87 566.935C245.504 566.935 240.259 568.526 235.798 571.507C231.337 574.488 227.859 578.725 225.806 583.682C223.753 588.639 223.215 594.094 224.262 599.357C225.309 604.619 227.893 609.453 231.687 613.247C235.481 617.041 240.315 619.625 245.577 620.672C250.84 621.718 256.295 621.181 261.252 619.128C266.209 617.075 270.446 613.597 273.427 609.136C276.408 604.675 277.999 599.43 277.999 594.064C277.999 586.869 275.141 579.968 270.053 574.881C264.965 569.793 258.065 566.935 250.87 566.935ZM139.483 566.935C134.117 566.935 128.872 568.526 124.411 571.507C119.95 574.488 116.472 578.725 114.419 583.682C112.366 588.639 111.828 594.094 112.875 599.357C113.922 604.619 116.506 609.453 120.3 613.247C124.094 617.041 128.928 619.625 134.19 620.672C139.453 621.718 144.908 621.181 149.865 619.128C154.822 617.075 159.059 613.597 162.04 609.136C165.021 604.675 166.612 599.43 166.612 594.064C166.612 586.869 163.754 579.969 158.666 574.881C153.578 569.793 146.678 566.935 139.483 566.935ZM362.257 566.935C356.891 566.935 351.646 568.526 347.185 571.507C342.724 574.488 339.246 578.725 337.193 583.682C335.14 588.639 334.602 594.094 335.649 599.357C336.696 604.619 339.28 609.453 343.074 613.247C346.868 617.041 351.702 619.625 356.964 620.672C362.227 621.718 367.682 621.181 372.639 619.128C377.596 617.075 381.833 613.597 384.814 609.136C387.795 604.675 389.386 599.43 389.386 594.064C389.386 586.869 386.528 579.969 381.44 574.881C376.352 569.793 369.452 566.935 362.257 566.935ZM632.16 631.193C632.16 643.692 627.195 655.68 618.356 664.518C609.518 673.357 597.53 678.322 585.031 678.322H102.354C89.8546 678.322 77.8671 673.357 69.0287 664.518C60.1903 655.68 55.225 643.692 55.225 631.193V556.935C55.225 544.436 60.1903 532.448 69.0287 523.61C77.8672 514.771 89.8546 509.806 102.354 509.806H585.031C597.53 509.806 609.518 514.771 618.356 523.61C627.195 532.448 632.16 544.436 632.16 556.935V631.193Z" fill="#0B0B0B"/>
<path d="M285.654 376.21L234.853 325.82C254.573 301.233 264.122 270.025 261.538 238.614C258.955 207.202 244.434 177.974 220.962 156.94C197.49 135.906 166.851 124.664 135.346 125.526C103.84 126.388 73.8614 139.289 51.575 161.575C29.2886 183.861 16.388 213.84 15.5259 245.346C14.6638 276.851 25.9057 307.49 46.9399 330.962C67.9742 354.434 97.2021 368.955 128.614 371.538C160.025 374.122 191.233 364.573 215.82 344.853L266.21 395.243C267.483 396.527 268.998 397.546 270.666 398.241C272.335 398.936 274.125 399.294 275.932 399.294C277.74 399.294 279.53 398.936 281.198 398.241C282.867 397.546 284.381 396.527 285.654 395.243C288.122 392.69 289.502 389.278 289.502 385.727C289.502 382.176 288.122 378.764 285.654 376.21ZM139.003 344.853C120.045 344.853 101.513 339.232 85.7508 328.7C69.9882 318.167 57.7028 303.198 50.4481 285.683C43.1933 268.169 41.2952 248.896 44.9936 230.303C48.692 211.71 57.8209 194.631 71.2259 181.226C84.6309 167.821 101.71 158.692 120.303 154.994C138.896 151.295 158.169 153.193 175.683 160.448C193.198 167.703 208.167 179.988 218.7 195.751C229.232 211.513 234.853 230.045 234.853 249.003C234.853 274.424 224.755 298.804 206.779 316.779C188.804 334.755 164.424 344.853 139.003 344.853Z" fill="#0B0B0B"/>
<path fill-rule="evenodd" clip-rule="evenodd" d="M295.618 366.374L295.72 366.48C300.712 371.644 303.502 378.545 303.502 385.727C303.502 392.909 300.712 399.81 295.72 404.973L295.658 405.038L295.594 405.102C293.02 407.698 289.957 409.758 286.582 411.164C283.208 412.57 279.588 413.294 275.932 413.294C272.276 413.294 268.657 412.57 265.282 411.164C261.918 409.762 258.864 407.711 256.294 405.126C256.286 405.118 256.278 405.11 256.27 405.102L214.379 363.212C188.826 380.099 158.234 388.022 127.466 385.491C92.486 382.614 59.9377 366.444 36.5139 340.305C13.0901 314.167 0.571085 280.048 1.53114 244.963C2.49119 209.878 16.8573 176.494 41.6755 151.675C66.4937 126.857 99.8775 112.491 134.963 111.531C170.048 110.571 204.167 123.09 230.305 146.514C256.444 169.938 272.614 202.486 275.491 237.466C278.021 268.217 270.108 298.793 253.239 324.338L295.618 366.374ZM234.853 325.82L285.654 376.21C288.122 378.764 289.502 382.176 289.502 385.727C289.502 389.278 288.122 392.69 285.654 395.243C284.381 396.527 282.867 397.546 281.198 398.241C279.53 398.936 277.74 399.294 275.932 399.294C274.125 399.294 272.335 398.936 270.666 398.241C268.998 397.546 267.483 396.527 266.21 395.243L215.82 344.853C191.233 364.573 160.025 374.122 128.614 371.538C97.2021 368.955 67.9742 354.434 46.9399 330.962C25.9057 307.49 14.6638 276.851 15.5259 245.346C16.388 213.84 29.2886 183.861 51.575 161.575C73.8614 139.289 103.84 126.388 135.346 125.526C166.851 124.664 197.49 135.906 220.962 156.94C244.434 177.974 258.955 207.202 261.538 238.614C264.122 270.025 254.573 301.233 234.853 325.82ZM93.5288 317.059C106.989 326.053 122.814 330.853 139.003 330.853C160.711 330.853 181.53 322.23 196.88 306.88C212.23 291.53 220.853 270.711 220.853 249.003C220.853 232.814 216.053 216.989 207.059 203.529C198.065 190.069 185.282 179.577 170.326 173.382C155.369 167.187 138.912 165.566 123.034 168.725C107.157 171.883 92.5724 179.678 81.1254 191.125C69.6784 202.572 61.8828 217.157 58.7246 233.034C55.5664 248.912 57.1873 265.369 63.3824 280.326C69.5775 295.282 80.0685 308.065 93.5288 317.059ZM85.7508 328.7C101.513 339.232 120.045 344.853 139.003 344.853C164.424 344.853 188.804 334.755 206.779 316.779C224.755 298.804 234.853 274.424 234.853 249.003C234.853 230.045 229.232 211.513 218.7 195.751C208.167 179.988 193.198 167.703 175.683 160.448C158.169 153.193 138.896 151.295 120.303 154.994C101.71 158.692 84.6309 167.821 71.2259 181.226C57.8209 194.631 48.692 211.71 44.9936 230.303C41.2952 248.896 43.1933 268.169 50.4481 285.683C57.7028 303.198 69.9882 318.167 85.7508 328.7Z" fill="#0B0B0B"/>
</svg>
